<?xml version="1.0" encoding="UTF-8" standalone="no"?>
<!DOCTYPE svg PUBLIC "-//W3C//DTD SVG 1.1//EN" "http://www.w3.org/Graphics/SVG/1.1/DTD/svg11.dtd">
<svg width="100%" height="100%" viewBox="0 0 580 580" version="1.1" xmlns="http://www.w3.org/2000/svg" xmlns:xlink="http://www.w3.org/1999/xlink" xml:space="preserve" xmlns:serif="http://www.serif.com/" style="fill-rule:evenodd;clip-rule:evenodd;stroke-linecap:round;stroke-linejoin:round;stroke-miterlimit:1.5;">
    <g transform="matrix(1.33134,0,0,1.60192,-88.9488,-351.386)">
        <ellipse cx="274.07" cy="491.409" rx="139.102" ry="9.896" style="fill-opacity:0.109804;"/>
    </g>
    <g id="_-Elipse-" serif:id="(Elipse)" transform="matrix(1.0132,0,0,1.09205,-0.858459,-99.0875)">
        <ellipse cx="274.07" cy="491.409" rx="139.102" ry="9.896" style="fill-opacity:0.184314;"/>
    </g>
    <g transform="matrix(1,0,0,0.952566,-14.6491,3.56347)">
        <path d="M294.078,97.517C332.258,98.22 348.803,103.9 371.985,116.563C376.079,118.799 375.853,110.734 385.975,108.214C398.299,105.146 406.093,106.566 417.79,118.824C424.152,125.492 423.816,135.592 423.559,141.039C422.919,154.557 410.314,159.669 410.754,160.641C415.087,170.219 419.817,181.11 421.257,192.286C421.57,194.71 475.765,223.397 483.357,263.314C495.259,325.893 472.061,355.247 471.888,352.803C471.428,346.299 472.542,340.031 466.608,324.685C457.084,300.055 447.766,289.833 447.898,292.059C453.911,393.703 452.657,429.642 405.591,452.938C378.094,466.547 335.502,469.651 292.296,469.621C237.258,469.582 200.036,463.359 169.759,448.799C131.519,430.41 137.477,354.007 144.991,320.009C146.945,311.167 148.289,303.901 148.995,302.062C150.124,299.12 123.102,325.979 116.419,358.662C113.925,370.856 100.16,320.938 103.456,287.463C103.764,284.334 106.477,250.123 134.067,222.7C155.254,201.641 166.267,200.187 166.595,199.235C173.882,178.13 177.223,172.189 182.674,162.2C185.194,157.585 178.501,157.486 174.284,149.645C169.012,139.843 172.905,125.256 177.986,119.177C198.695,94.404 222.97,117.558 224.973,115.947C247.825,97.563 275.312,97.172 294.078,97.517Z" style="fill:rgb(221,10,71);stroke:rgb(221,7,71);stroke-width:1.02px;"/>
    </g>
    <g>
        <g transform="matrix(1,0,0,1,-12.2929,53.6885)">
            <path d="M173.173,240.744C166.627,237.17 168.133,240.436 155.505,228.201C144.983,280.983 141.474,323.85 150.32,349.247C157.235,361.76 167.403,371.313 182.413,376.462L403.037,371.217C437.2,344.929 440.082,325.277 440.794,283.794C440.831,281.648 441.1,275.892 440.409,268.836C436.791,231.904 438.17,226.629 434.571,225.263C431.463,224.084 420.866,238.342 417.715,240.488C412.848,243.801 414.212,251.068 411.805,251.447C409.86,251.753 398.204,256.905 380.342,259.897C322.372,269.608 181.429,258.982 173.173,240.744Z" style="fill:rgb(247,33,95);"/>
        </g>
        <path d="M401.542,192.035C384.508,129.945 340.043,107.063 280.013,106.431C240.861,106.512 207.701,117.463 184.505,146.492C182.142,144.909 158.562,185.129 157.857,198.976C135.295,210.023 129.373,215.514 111.212,241.695C111.212,241.695 100.41,266.053 97.516,290.205C95.007,311.138 100.321,332.673 100.639,328.771C102.015,311.912 115.194,290.776 135.603,274.983C147.209,266.001 150.293,255.326 150.025,257.051C149.187,262.458 147.112,282.22 163.803,290.139C165.466,290.928 185.252,284.649 186.625,287.094L343.961,320.665L403.815,290.127C411.837,282.876 417.348,265.503 416.991,244.757C454.302,296.935 460.26,305.025 460.803,319.293C479.374,257.512 449.929,219.853 401.542,192.035Z" style="fill:rgb(247,33,95);"/>
        <g transform="matrix(1,0,0,1,-0.273738,-13.862)">
            <path d="M188.393,123.469C195.02,123.469 201.359,125.721 205.475,130.021C205.896,130.46 202.039,133.571 198.526,137.034C197.118,138.422 191.775,143.198 191.615,142.35C190.991,139.054 182.179,135.656 176.584,143.071C175.401,144.639 175.417,150.261 177.103,152.679C178.122,154.142 180.089,154.901 179.309,156.03C176.46,160.153 176.204,160.257 174.772,162.227C173.963,163.34 172.34,167.455 171.768,167.085C165.374,162.947 160.856,157.306 160.856,148.727C160.856,134.787 173.195,123.469 188.393,123.469Z" style="fill:rgb(247,33,95);"/>
        </g>
        <g transform="matrix(1.18843,0,0,1.20429,-76.5977,-32.1295)">
            <path d="M383.675,116.438C396.276,116.438 406.507,125.588 406.507,136.857C406.507,143.991 403.205,150.905 397.467,155.239C397.004,155.588 394.873,152.015 392.78,148.305C390.586,144.415 387.178,141.031 387.244,140.816C392.622,123.278 375.54,131.803 376.893,131.112C377.06,131.027 373.448,129.515 371.602,127.345C370.063,125.535 367.763,123.858 367.879,123.709C371.42,119.2 377.127,116.438 383.675,116.438Z" style="fill:rgb(247,33,95);"/>
        </g>
    </g>
    <g transform="matrix(1.03866,0,0,1,-22.4865,-10.4968)">
        <path d="M395.662,310.29C399.9,308.843 397.968,309.65 401.997,307.696C405.795,305.854 411.708,300.983 411.931,298.791C411.949,298.616 411.976,298.171 411.988,297.995C412.755,287.108 402.692,276.354 398.026,270.153C395.348,266.594 383.741,258.451 371.79,254.514C364.067,251.969 354.189,250.778 344.199,249.94C334.226,249.103 316.836,250.09 306.474,251.587C300.618,252.433 296.656,253.803 296.283,253.642C284.285,248.473 276.123,249.005 266.695,248.523C255.141,247.933 242.351,250.941 242.351,250.941C227.695,250.941 190.599,272.979 179.797,300.45C179.527,301.136 183.79,303.634 188.195,305.163C192.683,306.721 197.802,307.863 197.099,308.023C188.213,310.038 179.542,305.461 177.062,305.013C176.688,304.945 176.53,304.838 176.454,305.002C142.125,379.185 153.652,434.649 185.946,441.199C195.198,443.075 261.95,462.808 321.356,453.6C342.867,450.266 377.472,448.673 397.452,434.897C401.327,432.225 411.781,427.87 416.303,416.54C421.196,404.282 420.039,385.126 420.739,385.978L418.101,339.756L413.042,303.735C407.439,309.068 401.612,310.691 395.662,310.29Z" style="fill:rgb(249,117,157);"/>
    </g>
    <g transform="matrix(1.00961,0,0,1.50228,-1.87989,-202.029)">
        <path d="M289.206,415.508C289.62,415.085 293.828,411.776 290.161,408.734C289.559,408.235 287.757,406.533 286.563,406.895L277.045,406.979C271.447,408.643 268.328,410.697 268.096,412.14L268.071,416.151L271.882,413.045C274.059,412.045 276.644,412.005 280.89,411.991C283.395,411.982 286.974,411.684 288.548,412.473C289.662,413.031 288.649,416.078 289.206,415.508Z" style="fill:rgb(247,33,95);"/>
    </g>
    <g id="_-Curva-" serif:id="(Curva)" transform="matrix(0.994828,0,0,0.841007,1.96796,17.7476)">
        <path d="M377.537,139.515L281.817,149.149L182.747,137.829C182.771,153.319 186.483,164.789 191.094,175.279C201.151,197.911 220.404,200.486 233.379,194.386C245.319,188.738 255.207,180.983 264.419,164.076C269.264,155.186 276.168,155.956 281.432,154.885C288.659,154.64 296.205,157.24 303.034,166.736C303.133,166.873 304.253,172.019 305.511,175.096C309.783,185.544 317.911,191.827 321.555,194.405C325.968,197.525 331.184,198.673 335.558,199.115C343.17,199.883 350.459,195.899 356.052,192.942C360.851,190.404 375.129,171.865 377.001,158.345C378.829,155.716 377.908,147.008 377.537,139.515Z" style="fill:rgb(222,8,72);"/>
    </g>
    <path d="M191.72,143.061C192.98,137.916 251.757,133.782 254.049,144.307C259.364,168.717 237.816,181.16 220.116,181.16C202.416,181.16 186.491,164.418 191.72,143.061Z" style="fill:white;"/>
    <g transform="matrix(1,0,0,1,115.307,2.32728)">
        <path d="M192.13,138.963C193.309,133.8 251.35,129.101 253.581,139.638C259.939,169.66 237.816,181.16 220.116,181.16C202.416,181.16 185.917,166.182 192.13,138.963Z" style="fill:white;"/>
    </g>
    <path d="M291.737,153.767C295.313,154.373 299.538,156.893 298.969,163.598C298.963,163.675 303.637,164.829 307.479,167.692C310.468,169.918 311.085,170.876 312.622,172.743C315.244,175.928 314.492,185.776 312.297,186.94C308.459,188.974 307.487,190.946 305.271,190.981C303.522,191.008 299.335,191.182 298.153,191.201C297.784,191.207 298.154,197.4 298.018,202.923C297.912,207.218 297.779,211.029 294.963,211.721C293.234,212.145 290.11,212.963 288.354,212.389C282.556,210.493 284.234,207.585 281.166,207.274C279.413,207.096 277.29,211.911 273.191,212.045C269.109,212.179 264.16,208.335 263.338,205.96C261.84,201.631 263.436,190.421 262.246,191.147C262.133,191.215 258.313,190.397 254.993,187.596C248.556,182.163 251.782,174.272 253.167,170.843C255.07,166.134 264.874,163.19 264.882,163.088C265.646,153.938 274.211,150.799 291.737,153.767Z" style="fill:rgb(89,7,32);"/>
    <g transform="matrix(1.06353,0,0,1.35418,-19.8476,-68.1488)">
        <path d="M282.966,177.435C288.221,177.419 297.55,177.173 299.494,172.255C299.798,171.489 303.559,173.344 307,176.169C308.913,177.739 311.21,179.61 311.606,181.496C311.947,183.116 312.1,185.229 310.667,186.769C309.598,187.918 307.504,188.907 305.424,189.401C299.947,190.704 293.264,185.324 285.269,185.86C274.915,186.554 266.888,191.868 262.122,188.926C259.262,187.161 257.269,183.982 257.913,181.521C258.765,178.259 259.515,174.702 267.777,173.136C268.083,173.078 268.467,177.479 282.966,177.435Z" style="fill:rgb(217,4,68);"/>
    </g>
    <g transform="matrix(0.938278,0,0,1,14.5959,-10.1361)">
        <path d="M266.848,201.203C266.845,201.187 266.849,201.173 266.861,201.159C267.026,200.982 276.205,199.374 282.697,196.244C282.865,196.163 283.042,214.585 282.687,215.095C280.242,218.607 276.049,220.124 274.176,220.08C271.28,220.013 268.059,218.029 267.065,214.349C266.401,211.891 266.945,202.377 266.861,201.28C266.859,201.251 266.853,201.226 266.848,201.203Z" style="fill:rgb(253,252,252);"/>
    </g>
    <path d="M296.143,190.058C289.425,186.265 285.042,185.182 281.997,185.655L282.012,204.357C283.559,208.488 285.973,210.99 289.643,211.139C294.212,210.916 295.514,208.079 296.044,204.437L296.143,190.058Z" style="fill:rgb(253,252,252);"/>
    <path d="M397.619,140.353C393.553,135.2 380.057,132.056 348.239,132.819C312.113,134.47 293.25,137.301 281.916,140.645C258.996,136.254 231.578,132.205 206.664,131.831C193.463,131.632 171.16,133.719 167.561,138.7L169.001,149.423C175.156,143.864 191.606,141.74 210.807,140.534C237.403,141.007 261.931,142.909 281.376,148.32C291.055,145.624 305.284,141.775 321,141.364C354.913,140.476 377.79,142.214 394.08,147.213L397.619,140.353Z" style="fill:rgb(89,7,32);"/>
    <g transform="matrix(1.01517,0,0,1.01225,-6.29593,-5.28341)">
        <ellipse cx="209.716" cy="156.732" rx="10.122" ry="10.544" style="fill:rgb(89,7,32);"/>
    </g>
    <g transform="matrix(1.01517,0,0,1.01225,108.842,-3.41736)">
        <ellipse cx="209.716" cy="156.732" rx="10.122" ry="10.544" style="fill:rgb(89,7,32);"/>
    </g>
    <g transform="matrix(1,0,0,1,-0.718065,-0.141784)">
        <ellipse cx="211.79" cy="156.259" rx="2.495" ry="2.785" style="fill:white;"/>
    </g>
    <g transform="matrix(1,0,0,1,114.679,1.77306)">
        <ellipse cx="211.79" cy="156.259" rx="2.495" ry="2.785" style="fill:white;"/>
    </g>
    <g transform="matrix(0.897964,0,0,0.956539,29.9242,6.72563)">
        <ellipse cx="284.959" cy="159.927" rx="8.312" ry="5.176" style="fill:rgb(196,196,196);"/>
    </g>
</svg>
